<mxfile host="Electron" agent="Mozilla/5.0 (Windows NT 10.0; Win64; x64) AppleWebKit/537.36 (KHTML, like Gecko) draw.io/26.0.9 Chrome/128.0.6613.186 Electron/32.2.5 Safari/537.36" version="26.0.9">
  <diagram id="cG4n-leGqD0FjY3vzzq7" name="ページ1">
    <mxGraphModel dx="1434" dy="870" grid="1" gridSize="10" guides="1" tooltips="1" connect="1" arrows="1" fold="1" page="1" pageScale="1" pageWidth="920" pageHeight="480" background="light-dark(#FFFFFF,#FFFFFF)" math="0" shadow="0">
      <root>
        <mxCell id="0" />
        <mxCell id="1" parent="0" />
        <mxCell id="yczZY1DPW3MCDhS-Rlvy-71" value="" style="rounded=0;whiteSpace=wrap;html=1;strokeColor=none;" vertex="1" parent="1">
          <mxGeometry x="10" y="10" width="900" height="460" as="geometry" />
        </mxCell>
        <mxCell id="yczZY1DPW3MCDhS-Rlvy-3" value="" style="endArrow=none;html=1;rounded=0;entryX=0.75;entryY=1;entryDx=0;entryDy=0;strokeWidth=2;" edge="1" parent="1">
          <mxGeometry width="50" height="50" relative="1" as="geometry">
            <mxPoint x="280" y="402" as="sourcePoint" />
            <mxPoint x="280" y="162" as="targetPoint" />
          </mxGeometry>
        </mxCell>
        <mxCell id="yczZY1DPW3MCDhS-Rlvy-4" value="" style="endArrow=none;html=1;rounded=0;exitX=0.75;exitY=1;exitDx=0;exitDy=0;entryX=0.75;entryY=1;entryDx=0;entryDy=0;strokeWidth=2;" edge="1" parent="1">
          <mxGeometry width="50" height="50" relative="1" as="geometry">
            <mxPoint x="360" y="322" as="sourcePoint" />
            <mxPoint x="360" y="82" as="targetPoint" />
          </mxGeometry>
        </mxCell>
        <mxCell id="yczZY1DPW3MCDhS-Rlvy-5" value="" style="endArrow=none;html=1;rounded=0;exitX=0.75;exitY=1;exitDx=0;exitDy=0;entryX=0.75;entryY=1;entryDx=0;entryDy=0;strokeWidth=2;" edge="1" parent="1">
          <mxGeometry width="50" height="50" relative="1" as="geometry">
            <mxPoint x="40" y="402" as="sourcePoint" />
            <mxPoint x="40" y="162" as="targetPoint" />
          </mxGeometry>
        </mxCell>
        <mxCell id="yczZY1DPW3MCDhS-Rlvy-6" value="" style="endArrow=none;html=1;rounded=0;exitX=0.75;exitY=1;exitDx=0;exitDy=0;entryX=0.75;entryY=1;entryDx=0;entryDy=0;strokeColor=#B3B3B3;strokeWidth=2;" edge="1" parent="1">
          <mxGeometry width="50" height="50" relative="1" as="geometry">
            <mxPoint x="120" y="322" as="sourcePoint" />
            <mxPoint x="120" y="82" as="targetPoint" />
          </mxGeometry>
        </mxCell>
        <mxCell id="yczZY1DPW3MCDhS-Rlvy-7" value="" style="endArrow=none;html=1;rounded=0;exitX=0.25;exitY=0;exitDx=0;exitDy=0;entryX=1;entryY=0;entryDx=0;entryDy=0;strokeWidth=2;" edge="1" parent="1">
          <mxGeometry width="50" height="50" relative="1" as="geometry">
            <mxPoint x="120" y="82" as="sourcePoint" />
            <mxPoint x="360" y="82" as="targetPoint" />
          </mxGeometry>
        </mxCell>
        <mxCell id="yczZY1DPW3MCDhS-Rlvy-9" value="" style="endArrow=none;html=1;rounded=0;exitX=0.25;exitY=0;exitDx=0;exitDy=0;entryX=1;entryY=0;entryDx=0;entryDy=0;strokeWidth=2;" edge="1" parent="1">
          <mxGeometry width="50" height="50" relative="1" as="geometry">
            <mxPoint x="40" y="162" as="sourcePoint" />
            <mxPoint x="280" y="162" as="targetPoint" />
          </mxGeometry>
        </mxCell>
        <mxCell id="yczZY1DPW3MCDhS-Rlvy-10" value="" style="endArrow=none;html=1;rounded=0;exitX=0.25;exitY=0;exitDx=0;exitDy=0;entryX=1;entryY=0;entryDx=0;entryDy=0;strokeWidth=2;" edge="1" parent="1">
          <mxGeometry width="50" height="50" relative="1" as="geometry">
            <mxPoint x="40" y="402" as="sourcePoint" />
            <mxPoint x="280" y="402" as="targetPoint" />
          </mxGeometry>
        </mxCell>
        <mxCell id="yczZY1DPW3MCDhS-Rlvy-12" value="" style="endArrow=none;html=1;rounded=0;strokeWidth=2;" edge="1" parent="1">
          <mxGeometry width="50" height="50" relative="1" as="geometry">
            <mxPoint x="280" y="402" as="sourcePoint" />
            <mxPoint x="360" y="322" as="targetPoint" />
          </mxGeometry>
        </mxCell>
        <mxCell id="yczZY1DPW3MCDhS-Rlvy-13" value="" style="endArrow=none;html=1;rounded=0;strokeWidth=2;strokeColor=#B3B3B3;" edge="1" parent="1">
          <mxGeometry width="50" height="50" relative="1" as="geometry">
            <mxPoint x="40" y="402" as="sourcePoint" />
            <mxPoint x="120" y="322" as="targetPoint" />
          </mxGeometry>
        </mxCell>
        <mxCell id="yczZY1DPW3MCDhS-Rlvy-14" value="" style="endArrow=none;html=1;rounded=0;strokeWidth=2;" edge="1" parent="1">
          <mxGeometry width="50" height="50" relative="1" as="geometry">
            <mxPoint x="40" y="162" as="sourcePoint" />
            <mxPoint x="120" y="82" as="targetPoint" />
          </mxGeometry>
        </mxCell>
        <mxCell id="yczZY1DPW3MCDhS-Rlvy-15" value="" style="endArrow=none;html=1;rounded=0;strokeWidth=2;" edge="1" parent="1">
          <mxGeometry width="50" height="50" relative="1" as="geometry">
            <mxPoint x="280" y="162" as="sourcePoint" />
            <mxPoint x="360" y="82" as="targetPoint" />
          </mxGeometry>
        </mxCell>
        <mxCell id="yczZY1DPW3MCDhS-Rlvy-16" value="" style="endArrow=none;html=1;rounded=0;exitX=0.25;exitY=0;exitDx=0;exitDy=0;entryX=1;entryY=0;entryDx=0;entryDy=0;strokeWidth=2;strokeColor=#B3B3B3;" edge="1" parent="1">
          <mxGeometry width="50" height="50" relative="1" as="geometry">
            <mxPoint x="120" y="322" as="sourcePoint" />
            <mxPoint x="360" y="322" as="targetPoint" />
          </mxGeometry>
        </mxCell>
        <mxCell id="yczZY1DPW3MCDhS-Rlvy-17" value="" style="endArrow=none;html=1;rounded=0;strokeWidth=2;strokeColor=#FF0000;" edge="1" parent="1">
          <mxGeometry width="50" height="50" relative="1" as="geometry">
            <mxPoint x="200" y="362" as="sourcePoint" />
            <mxPoint x="80" y="242" as="targetPoint" />
          </mxGeometry>
        </mxCell>
        <mxCell id="yczZY1DPW3MCDhS-Rlvy-18" value="" style="endArrow=none;html=1;rounded=0;strokeWidth=2;strokeColor=#FF0000;" edge="1" parent="1">
          <mxGeometry width="50" height="50" relative="1" as="geometry">
            <mxPoint x="200" y="362" as="sourcePoint" />
            <mxPoint x="320" y="242" as="targetPoint" />
          </mxGeometry>
        </mxCell>
        <mxCell id="yczZY1DPW3MCDhS-Rlvy-19" value="" style="endArrow=none;html=1;rounded=0;strokeWidth=2;strokeColor=#FF0000;" edge="1" parent="1">
          <mxGeometry width="50" height="50" relative="1" as="geometry">
            <mxPoint x="200" y="362" as="sourcePoint" />
            <mxPoint x="160" y="282" as="targetPoint" />
          </mxGeometry>
        </mxCell>
        <mxCell id="yczZY1DPW3MCDhS-Rlvy-20" value="" style="endArrow=none;html=1;rounded=0;strokeWidth=2;strokeColor=#FFCCCC;" edge="1" parent="1">
          <mxGeometry width="50" height="50" relative="1" as="geometry">
            <mxPoint x="200" y="362" as="sourcePoint" />
            <mxPoint x="240" y="202" as="targetPoint" />
          </mxGeometry>
        </mxCell>
        <mxCell id="yczZY1DPW3MCDhS-Rlvy-21" value="" style="endArrow=none;html=1;rounded=0;strokeWidth=2;strokeColor=#FF0000;" edge="1" parent="1">
          <mxGeometry width="50" height="50" relative="1" as="geometry">
            <mxPoint x="160" y="282" as="sourcePoint" />
            <mxPoint x="200" y="122" as="targetPoint" />
          </mxGeometry>
        </mxCell>
        <mxCell id="yczZY1DPW3MCDhS-Rlvy-22" value="" style="endArrow=none;html=1;rounded=0;strokeWidth=2;strokeColor=#FF0000;" edge="1" parent="1">
          <mxGeometry width="50" height="50" relative="1" as="geometry">
            <mxPoint x="80" y="242" as="sourcePoint" />
            <mxPoint x="200" y="122" as="targetPoint" />
          </mxGeometry>
        </mxCell>
        <mxCell id="yczZY1DPW3MCDhS-Rlvy-23" value="" style="endArrow=none;html=1;rounded=0;strokeWidth=2;strokeColor=#FFCCCC;" edge="1" parent="1">
          <mxGeometry width="50" height="50" relative="1" as="geometry">
            <mxPoint x="200" y="122" as="sourcePoint" />
            <mxPoint x="240" y="202" as="targetPoint" />
          </mxGeometry>
        </mxCell>
        <mxCell id="yczZY1DPW3MCDhS-Rlvy-24" value="" style="endArrow=none;html=1;rounded=0;strokeWidth=2;strokeColor=#FF0000;" edge="1" parent="1">
          <mxGeometry width="50" height="50" relative="1" as="geometry">
            <mxPoint x="200" y="122" as="sourcePoint" />
            <mxPoint x="320" y="242" as="targetPoint" />
          </mxGeometry>
        </mxCell>
        <mxCell id="yczZY1DPW3MCDhS-Rlvy-25" value="" style="endArrow=none;html=1;rounded=0;strokeWidth=2;strokeColor=#FF0000;" edge="1" parent="1">
          <mxGeometry width="50" height="50" relative="1" as="geometry">
            <mxPoint x="160" y="282" as="sourcePoint" />
            <mxPoint x="320" y="242" as="targetPoint" />
          </mxGeometry>
        </mxCell>
        <mxCell id="yczZY1DPW3MCDhS-Rlvy-26" value="" style="endArrow=none;html=1;rounded=0;strokeWidth=2;strokeColor=#FF0000;" edge="1" parent="1">
          <mxGeometry width="50" height="50" relative="1" as="geometry">
            <mxPoint x="80" y="242" as="sourcePoint" />
            <mxPoint x="160" y="282" as="targetPoint" />
          </mxGeometry>
        </mxCell>
        <mxCell id="yczZY1DPW3MCDhS-Rlvy-27" value="" style="endArrow=none;html=1;rounded=0;strokeWidth=2;strokeColor=#FFCCCC;" edge="1" parent="1">
          <mxGeometry width="50" height="50" relative="1" as="geometry">
            <mxPoint x="80" y="242" as="sourcePoint" />
            <mxPoint x="240" y="202" as="targetPoint" />
          </mxGeometry>
        </mxCell>
        <mxCell id="yczZY1DPW3MCDhS-Rlvy-28" value="" style="endArrow=none;html=1;rounded=0;strokeWidth=2;strokeColor=#FFCCCC;" edge="1" parent="1">
          <mxGeometry width="50" height="50" relative="1" as="geometry">
            <mxPoint x="240" y="202" as="sourcePoint" />
            <mxPoint x="320" y="242" as="targetPoint" />
          </mxGeometry>
        </mxCell>
        <mxCell id="yczZY1DPW3MCDhS-Rlvy-31" value="" style="endArrow=none;html=1;rounded=0;strokeWidth=2;strokeColor=#000000;" edge="1" parent="1">
          <mxGeometry width="50" height="50" relative="1" as="geometry">
            <mxPoint x="680" y="440" as="sourcePoint" />
            <mxPoint x="480" y="240" as="targetPoint" />
          </mxGeometry>
        </mxCell>
        <mxCell id="yczZY1DPW3MCDhS-Rlvy-32" value="" style="endArrow=none;html=1;rounded=0;strokeWidth=2;strokeColor=#000000;" edge="1" parent="1">
          <mxGeometry width="50" height="50" relative="1" as="geometry">
            <mxPoint x="680" y="440" as="sourcePoint" />
            <mxPoint x="880" y="240" as="targetPoint" />
          </mxGeometry>
        </mxCell>
        <mxCell id="yczZY1DPW3MCDhS-Rlvy-33" value="" style="endArrow=none;html=1;rounded=0;strokeWidth=2;strokeColor=#000000;" edge="1" parent="1">
          <mxGeometry width="50" height="50" relative="1" as="geometry">
            <mxPoint x="680" y="440" as="sourcePoint" />
            <mxPoint x="613.3333333333333" y="306.66666666666663" as="targetPoint" />
          </mxGeometry>
        </mxCell>
        <mxCell id="yczZY1DPW3MCDhS-Rlvy-34" value="" style="endArrow=none;html=1;rounded=0;strokeWidth=2;strokeColor=#B3B3B3;" edge="1" parent="1">
          <mxGeometry width="50" height="50" relative="1" as="geometry">
            <mxPoint x="680" y="440" as="sourcePoint" />
            <mxPoint x="746.6666666666666" y="173.33333333333331" as="targetPoint" />
          </mxGeometry>
        </mxCell>
        <mxCell id="yczZY1DPW3MCDhS-Rlvy-35" value="" style="endArrow=none;html=1;rounded=0;strokeWidth=2;strokeColor=#000000;" edge="1" parent="1">
          <mxGeometry width="50" height="50" relative="1" as="geometry">
            <mxPoint x="613.3333333333333" y="306.66666666666663" as="sourcePoint" />
            <mxPoint x="680" y="40" as="targetPoint" />
          </mxGeometry>
        </mxCell>
        <mxCell id="yczZY1DPW3MCDhS-Rlvy-36" value="" style="endArrow=none;html=1;rounded=0;strokeWidth=2;strokeColor=#000000;" edge="1" parent="1">
          <mxGeometry width="50" height="50" relative="1" as="geometry">
            <mxPoint x="480" y="240" as="sourcePoint" />
            <mxPoint x="680" y="40" as="targetPoint" />
          </mxGeometry>
        </mxCell>
        <mxCell id="yczZY1DPW3MCDhS-Rlvy-37" value="" style="endArrow=none;html=1;rounded=0;strokeWidth=2;strokeColor=#B3B3B3;" edge="1" parent="1">
          <mxGeometry width="50" height="50" relative="1" as="geometry">
            <mxPoint x="680" y="40" as="sourcePoint" />
            <mxPoint x="746.6666666666666" y="173.33333333333331" as="targetPoint" />
          </mxGeometry>
        </mxCell>
        <mxCell id="yczZY1DPW3MCDhS-Rlvy-38" value="" style="endArrow=none;html=1;rounded=0;strokeWidth=2;strokeColor=#000000;" edge="1" parent="1">
          <mxGeometry width="50" height="50" relative="1" as="geometry">
            <mxPoint x="680" y="40" as="sourcePoint" />
            <mxPoint x="880" y="240" as="targetPoint" />
          </mxGeometry>
        </mxCell>
        <mxCell id="yczZY1DPW3MCDhS-Rlvy-39" value="" style="endArrow=none;html=1;rounded=0;strokeWidth=2;strokeColor=#000000;" edge="1" parent="1">
          <mxGeometry width="50" height="50" relative="1" as="geometry">
            <mxPoint x="613.3333333333333" y="306.66666666666663" as="sourcePoint" />
            <mxPoint x="880" y="240" as="targetPoint" />
          </mxGeometry>
        </mxCell>
        <mxCell id="yczZY1DPW3MCDhS-Rlvy-40" value="" style="endArrow=none;html=1;rounded=0;strokeWidth=2;strokeColor=#000000;" edge="1" parent="1">
          <mxGeometry width="50" height="50" relative="1" as="geometry">
            <mxPoint x="480" y="240" as="sourcePoint" />
            <mxPoint x="613.3333333333333" y="306.66666666666663" as="targetPoint" />
          </mxGeometry>
        </mxCell>
        <mxCell id="yczZY1DPW3MCDhS-Rlvy-41" value="" style="endArrow=none;html=1;rounded=0;strokeWidth=2;strokeColor=#B3B3B3;" edge="1" parent="1">
          <mxGeometry width="50" height="50" relative="1" as="geometry">
            <mxPoint x="480" y="240" as="sourcePoint" />
            <mxPoint x="746.6666666666666" y="173.33333333333331" as="targetPoint" />
          </mxGeometry>
        </mxCell>
        <mxCell id="yczZY1DPW3MCDhS-Rlvy-42" value="" style="endArrow=none;html=1;rounded=0;strokeWidth=2;strokeColor=#B3B3B3;" edge="1" parent="1">
          <mxGeometry width="50" height="50" relative="1" as="geometry">
            <mxPoint x="746.6666666666666" y="173.33333333333331" as="sourcePoint" />
            <mxPoint x="880" y="240" as="targetPoint" />
          </mxGeometry>
        </mxCell>
        <mxCell id="yczZY1DPW3MCDhS-Rlvy-68" value="" style="group" vertex="1" connectable="0" parent="1">
          <mxGeometry x="592" y="155" width="175" height="175" as="geometry" />
        </mxCell>
        <mxCell id="yczZY1DPW3MCDhS-Rlvy-44" value="" style="endArrow=none;html=1;rounded=0;entryX=0.75;entryY=1;entryDx=0;entryDy=0;strokeWidth=2;strokeColor=#FF0000;" edge="1" parent="yczZY1DPW3MCDhS-Rlvy-68">
          <mxGeometry width="50" height="50" relative="1" as="geometry">
            <mxPoint x="131.25" y="175" as="sourcePoint" />
            <mxPoint x="131.25" y="43.75" as="targetPoint" />
          </mxGeometry>
        </mxCell>
        <mxCell id="yczZY1DPW3MCDhS-Rlvy-45" value="" style="endArrow=none;html=1;rounded=0;exitX=0.75;exitY=1;exitDx=0;exitDy=0;entryX=0.75;entryY=1;entryDx=0;entryDy=0;strokeWidth=2;strokeColor=#FF0000;" edge="1" parent="yczZY1DPW3MCDhS-Rlvy-68">
          <mxGeometry width="50" height="50" relative="1" as="geometry">
            <mxPoint x="175" y="131.25" as="sourcePoint" />
            <mxPoint x="175" as="targetPoint" />
          </mxGeometry>
        </mxCell>
        <mxCell id="yczZY1DPW3MCDhS-Rlvy-46" value="" style="endArrow=none;html=1;rounded=0;exitX=0.75;exitY=1;exitDx=0;exitDy=0;entryX=0.75;entryY=1;entryDx=0;entryDy=0;strokeWidth=2;strokeColor=#FF0000;" edge="1" parent="yczZY1DPW3MCDhS-Rlvy-68">
          <mxGeometry width="50" height="50" relative="1" as="geometry">
            <mxPoint y="175" as="sourcePoint" />
            <mxPoint y="43.75" as="targetPoint" />
          </mxGeometry>
        </mxCell>
        <mxCell id="yczZY1DPW3MCDhS-Rlvy-47" value="" style="endArrow=none;html=1;rounded=0;exitX=0.75;exitY=1;exitDx=0;exitDy=0;entryX=0.75;entryY=1;entryDx=0;entryDy=0;strokeColor=#FFCCCC;strokeWidth=2;" edge="1" parent="yczZY1DPW3MCDhS-Rlvy-68">
          <mxGeometry width="50" height="50" relative="1" as="geometry">
            <mxPoint x="43.75" y="131.25" as="sourcePoint" />
            <mxPoint x="43.75" as="targetPoint" />
          </mxGeometry>
        </mxCell>
        <mxCell id="yczZY1DPW3MCDhS-Rlvy-48" value="" style="endArrow=none;html=1;rounded=0;exitX=0.25;exitY=0;exitDx=0;exitDy=0;entryX=1;entryY=0;entryDx=0;entryDy=0;strokeWidth=2;strokeColor=#FF0000;" edge="1" parent="yczZY1DPW3MCDhS-Rlvy-68">
          <mxGeometry width="50" height="50" relative="1" as="geometry">
            <mxPoint x="43.75" as="sourcePoint" />
            <mxPoint x="175" as="targetPoint" />
          </mxGeometry>
        </mxCell>
        <mxCell id="yczZY1DPW3MCDhS-Rlvy-49" value="" style="endArrow=none;html=1;rounded=0;exitX=0.25;exitY=0;exitDx=0;exitDy=0;entryX=1;entryY=0;entryDx=0;entryDy=0;strokeWidth=2;strokeColor=#FF0000;" edge="1" parent="yczZY1DPW3MCDhS-Rlvy-68">
          <mxGeometry width="50" height="50" relative="1" as="geometry">
            <mxPoint y="43.75" as="sourcePoint" />
            <mxPoint x="131.25" y="43.75" as="targetPoint" />
          </mxGeometry>
        </mxCell>
        <mxCell id="yczZY1DPW3MCDhS-Rlvy-50" value="" style="endArrow=none;html=1;rounded=0;exitX=0.25;exitY=0;exitDx=0;exitDy=0;entryX=1;entryY=0;entryDx=0;entryDy=0;strokeWidth=2;strokeColor=#FF0000;" edge="1" parent="yczZY1DPW3MCDhS-Rlvy-68">
          <mxGeometry width="50" height="50" relative="1" as="geometry">
            <mxPoint y="175" as="sourcePoint" />
            <mxPoint x="131.25" y="175" as="targetPoint" />
          </mxGeometry>
        </mxCell>
        <mxCell id="yczZY1DPW3MCDhS-Rlvy-51" value="" style="endArrow=none;html=1;rounded=0;strokeWidth=2;strokeColor=#FF0000;" edge="1" parent="yczZY1DPW3MCDhS-Rlvy-68">
          <mxGeometry width="50" height="50" relative="1" as="geometry">
            <mxPoint x="131.25" y="175" as="sourcePoint" />
            <mxPoint x="175" y="131.25" as="targetPoint" />
          </mxGeometry>
        </mxCell>
        <mxCell id="yczZY1DPW3MCDhS-Rlvy-52" value="" style="endArrow=none;html=1;rounded=0;strokeWidth=2;strokeColor=#FFCCCC;" edge="1" parent="yczZY1DPW3MCDhS-Rlvy-68">
          <mxGeometry width="50" height="50" relative="1" as="geometry">
            <mxPoint y="175" as="sourcePoint" />
            <mxPoint x="43.75" y="131.25" as="targetPoint" />
          </mxGeometry>
        </mxCell>
        <mxCell id="yczZY1DPW3MCDhS-Rlvy-53" value="" style="endArrow=none;html=1;rounded=0;strokeWidth=2;strokeColor=#FF0000;" edge="1" parent="yczZY1DPW3MCDhS-Rlvy-68">
          <mxGeometry width="50" height="50" relative="1" as="geometry">
            <mxPoint y="43.75" as="sourcePoint" />
            <mxPoint x="43.75" as="targetPoint" />
          </mxGeometry>
        </mxCell>
        <mxCell id="yczZY1DPW3MCDhS-Rlvy-54" value="" style="endArrow=none;html=1;rounded=0;strokeWidth=2;strokeColor=#FF0000;" edge="1" parent="yczZY1DPW3MCDhS-Rlvy-68">
          <mxGeometry width="50" height="50" relative="1" as="geometry">
            <mxPoint x="131.25" y="43.75" as="sourcePoint" />
            <mxPoint x="175" as="targetPoint" />
          </mxGeometry>
        </mxCell>
        <mxCell id="yczZY1DPW3MCDhS-Rlvy-55" value="" style="endArrow=none;html=1;rounded=0;exitX=0.25;exitY=0;exitDx=0;exitDy=0;entryX=1;entryY=0;entryDx=0;entryDy=0;strokeWidth=2;strokeColor=#FFCCCC;" edge="1" parent="yczZY1DPW3MCDhS-Rlvy-68">
          <mxGeometry width="50" height="50" relative="1" as="geometry">
            <mxPoint x="43.75" y="131.25" as="sourcePoint" />
            <mxPoint x="175" y="131.25" as="targetPoint" />
          </mxGeometry>
        </mxCell>
        <mxCell id="yczZY1DPW3MCDhS-Rlvy-69" value="" style="shape=flexArrow;endArrow=classic;startArrow=classic;html=1;rounded=0;fillColor=#FF0000;" edge="1" parent="1">
          <mxGeometry width="100" height="100" relative="1" as="geometry">
            <mxPoint x="385" y="242" as="sourcePoint" />
            <mxPoint x="465" y="242" as="targetPoint" />
          </mxGeometry>
        </mxCell>
      </root>
    </mxGraphModel>
  </diagram>
</mxfile>
